<?xml version="1.0" encoding="UTF-8"?>
<svg xmlns="http://www.w3.org/2000/svg" version="1.1" viewBox="0 0 419.86 159.48">
  <!-- Generator: Adobe Illustrator 29.8.2, SVG Export Plug-In . SVG Version: 2.1.1 Build 3)  -->
  <defs>
    <style>
      .st0 {
        fill: #fff;
      }

      .st1 {
        fill: #005aff;
      }

      .st2 {
        fill: #040407;
      }
    </style>
  </defs>
  <g id="back">
    <rect class="st1" x="-2.63" y="-2.04" width="424.44" height="163.56"/>
  </g>
  <g id="arrows">
    <g id="REGION">
      <g id="LINE">
        <path class="st2" d="M199.44,107.89l49.24-28.15-49.24-28.15c-4.07-20.45-12.48-38.5-24.01-51.59l97.72,50.28c4.02,19.2,4.02,39.72,0,58.92l-97.72,50.28c11.54-13.09,19.94-31.14,24.01-51.59Z"/>
      </g>
    </g>
    <g id="REGION1" data-name="REGION">
      <g id="LINE1" data-name="LINE">
        <path class="st2" d="M133.54,106.22l41.17-26.48-41.17-26.48c-3.94-21.12-12.48-39.81-24.34-53.26l90.24,51.59c3.66,18.39,3.66,37.91,0,56.3l-90.24,51.59c11.86-13.45,20.4-32.14,24.34-53.26Z"/>
      </g>
    </g>
    <g id="REGION2" data-name="REGION">
      <g id="LINE2" data-name="LINE">
        <path class="st2" d="M75.45,104.02l33.03-24.28-33.03-24.28c-3.74-22-12.45-41.53-24.73-55.46l82.81,53.26c3.23,17.34,3.23,35.62,0,52.96l-82.81,53.26c12.28-13.93,20.99-33.46,24.73-55.46Z"/>
      </g>
    </g>
    <g id="REGION3" data-name="REGION">
      <g id="LINE3" data-name="LINE">
        <path class="st2" d="M0,0l75.45,55.46c2.71,15.94,2.71,32.61,0,48.55L0,159.48C30.26,125.15,35.67,61.62,12.08,17.58,8.57,11.02,4.51,5.11,0,0Z"/>
      </g>
    </g>
    <g id="REGION4" data-name="REGION">
      <g id="ARC">
        <path class="st2" d="M419.86,79.74l-170.47,79.74c11.28-12.8,19.58-30.36,23.75-50.28l57.25-29.46-57.25-29.46c-4.17-19.92-12.46-37.48-23.75-50.28l170.47,79.74Z"/>
      </g>
    </g>
  </g>
  <g id="SONIC">
    <g>
      <g>
        <path class="st0" d="M43.11,70.77c2.69-.62,4.63-1.44,5.91-2.52,1.42-1.2,2.14-2.84,2.14-4.86,0-2.13-1.09-4.01-3.23-5.59-1.38-.99-3.87-2.16-7.62-3.59-4-1.53-6.77-2.63-8.23-3.27-1.44-.63-2.86-1.39-4.19-2.25-5.99-3.71-8.9-8.49-8.9-14.63,0-3.1.75-6.01,2.22-8.63,1.47-2.62,3.55-4.77,6.18-6.37,3.54-2.16,7.96-3.41,13.15-3.74v3.62c-1.88.51-3.37,1.28-4.42,2.27-1.2,1.14-1.81,2.57-1.81,4.24,0,1.58.5,2.99,1.49,4.18.94,1.14,2.47,2.23,4.55,3.23,1.4.67,4.47,1.9,9.37,3.77,2.9,1.09,5.17,2.09,6.75,2.96,1.56.86,3.06,1.95,4.45,3.25,3.69,3.37,5.56,7.43,5.56,12.06,0,3.5-1.01,6.75-3.01,9.66-2.01,2.92-4.82,5.25-8.35,6.92-1.9.88-4.02,1.59-6.3,2.1-2.01.45-3.92.71-5.69.76v-3.58ZM37.98,74.34c-2.4-.11-5.05-.76-7.91-1.93-1.24-.5-2.08-.81-2.56-.96-.53-.16-1.04-.24-1.53-.24-.78,0-1.38.12-1.82.37-.4.23-.95.7-1.73,1.51-.46.49-.92.73-1.41.73-.95,0-2.04-.34-2.04-2.96v-15.52c0-.62.19-1.12.59-1.54.4-.42.88-.63,1.48-.65h.12c.47,0,.82.11,1.07.34.22.2.54.67.86,1.72.77,2.5,1.89,4.87,3.35,7.05,1.46,2.19,3.19,4.06,5.13,5.58,1.86,1.48,4.01,2.48,6.4,2.97v3.56ZM61.98,34.63c-.52,0-.98-.14-1.43-.44-.18-.14-.35-.34-.48-.58-.1-.18-.26-.58-.44-1.45-.38-1.48-1.03-2.99-1.95-4.52-.91-1.52-1.99-2.9-3.2-4.1-2.32-2.27-5.23-3.82-8.67-4.63v-3.38c1.6.12,3.03.32,4.24.6,1.4.32,3.44.96,6.04,1.91.74.26,1.35.38,1.86.38.84,0,1.49-.28,1.92-.82l1.06-1.21c.4-.48.84-.7,1.38-.7.65,0,1.1.18,1.37.55.31.42.48,1.19.48,2.21v14.07c0,.63-.2,1.13-.6,1.52-.41.4-.93.59-1.59.59Z"/>
        <path class="st2" d="M39.83,16.07v2.34c-1.75.54-3.16,1.31-4.2,2.29-1.35,1.28-2.03,2.88-2.03,4.75,0,1.75.55,3.31,1.65,4.62,1.02,1.23,2.59,2.35,4.79,3.42,1.42.67,4.5,1.92,9.43,3.8,2.87,1.08,5.11,2.06,6.66,2.92,1.51.83,2.96,1.89,4.32,3.15,3.59,3.28,5.33,7.05,5.33,11.54,0,3.36-.97,6.48-2.89,9.26-1.94,2.82-4.66,5.07-8.07,6.68-1.86.86-3.93,1.55-6.17,2.06-1.69.38-3.32.62-4.84.71v-2.29c2.53-.63,4.38-1.46,5.66-2.54,1.58-1.34,2.38-3.16,2.38-5.4,0-2.36-1.18-4.44-3.53-6.17-1.42-1.02-3.96-2.22-7.77-3.67-3.99-1.52-6.75-2.62-8.2-3.26-1.41-.62-2.79-1.36-4.12-2.21-5.76-3.57-8.56-8.15-8.56-14.03,0-2.98.72-5.77,2.13-8.29,1.41-2.52,3.41-4.57,5.93-6.12,3.27-1.99,7.33-3.2,12.09-3.58M46.51,16.3c1.26.12,2.4.29,3.39.52,1.38.31,3.38.95,5.98,1.9.81.28,1.49.42,2.08.42,1.3,0,2.05-.57,2.45-1.05l1.08-1.24c.32-.38.6-.44.84-.44.61,0,.76.19.81.26.1.14.34.59.34,1.79v14.07c0,.57-.21.84-.39,1.02-.17.17-.47.39-1.1.39-.36,0-.68-.1-.99-.29-.12-.1-.22-.22-.3-.37-.04-.07-.18-.38-.37-1.26v-.03s-.01-.03-.01-.03c-.39-1.52-1.07-3.09-2.02-4.67-.94-1.57-2.05-3-3.31-4.25-2.29-2.23-5.13-3.8-8.45-4.67v-2.06M21.17,53.83c.28,0,.48.05.59.16.08.08.36.4.67,1.41.79,2.56,1.94,4.99,3.43,7.23,1.5,2.25,3.28,4.18,5.27,5.73,1.8,1.43,3.86,2.44,6.14,2.99v2.25c-2.12-.19-4.45-.81-6.95-1.84-1.25-.5-2.11-.82-2.61-.98-.59-.18-1.18-.28-1.74-.28-.91,0-1.61.15-2.16.46-.46.26-1.04.76-1.9,1.64-.47.5-.79.5-.89.5-.53,0-1.34,0-1.34-2.26v-15.52c0-.44.12-.77.4-1.06.27-.29.57-.42,1-.43h.09M41.23,14.57c-5.66.26-10.4,1.55-14.22,3.88-2.75,1.68-4.89,3.89-6.42,6.63-1.54,2.74-2.3,5.73-2.3,8.97,0,6.34,3.07,11.41,9.22,15.22,1.37.88,2.8,1.65,4.29,2.3,1.49.65,4.24,1.75,8.26,3.28,3.66,1.39,6.15,2.56,7.45,3.5,1.96,1.45,2.94,3.13,2.94,5.03s-.63,3.26-1.89,4.33c-1.26,1.07-3.31,1.9-6.15,2.49v4.86c2.03,0,4.21-.26,6.55-.79,2.34-.53,4.49-1.24,6.45-2.15,3.66-1.73,6.54-4.12,8.63-7.16,2.09-3.04,3.14-6.39,3.14-10.06,0-4.86-1.93-9.05-5.79-12.57-1.44-1.34-2.97-2.45-4.59-3.35-1.62-.9-3.9-1.9-6.84-3.01-4.84-1.85-7.94-3.1-9.32-3.75-1.99-.97-3.43-1.98-4.32-3.05-.88-1.07-1.32-2.31-1.32-3.73s.53-2.72,1.59-3.73c1.06-1.01,2.61-1.75,4.63-2.24v-4.9h0ZM45.11,14.79v4.69c3.56.74,6.52,2.26,8.88,4.56,1.18,1.17,2.21,2.49,3.09,3.96.88,1.48,1.5,2.91,1.86,4.31.16.77.34,1.31.52,1.64.18.33.42.6.71.83.56.37,1.16.55,1.81.55.85,0,1.54-.26,2.08-.79.54-.53.81-1.2.81-2.02v-14.07c0-1.19-.2-2.07-.61-2.62-.41-.55-1.05-.83-1.94-.83-.75,0-1.39.31-1.91.94l-1.08,1.24c-.29.37-.75.55-1.37.55-.43,0-.96-.11-1.62-.34-2.65-.97-4.69-1.61-6.13-1.94-1.44-.33-3.14-.55-5.1-.66h0ZM21.17,52.42s-.1,0-.14,0c-.78.03-1.44.32-1.96.87-.52.55-.78,1.23-.78,2.02v15.52c0,2.44.91,3.67,2.75,3.67.69,0,1.32-.31,1.91-.94.72-.74,1.24-1.2,1.57-1.39.33-.18.82-.28,1.47-.28.42,0,.87.07,1.32.21.46.14,1.29.46,2.5.94,3.24,1.34,6.19,2,8.88,2v-4.86c-2.52-.43-4.74-1.41-6.67-2.94-1.9-1.48-3.56-3.28-4.98-5.41-1.42-2.13-2.51-4.42-3.26-6.86-.29-.97-.65-1.64-1.05-2.02-.38-.36-.9-.54-1.55-.54h0Z"/>
      </g>
      <g>
        <path class="st0" d="M131.6,70.93c.67-.17,1.2-.37,1.63-.61.55-.31,1.06-.77,1.51-1.35.98-1.29,1.47-3.21,1.47-5.71V25.15c0-1.64-.34-2.98-1-3.97-.44-.67-.98-1.22-1.61-1.61-.5-.32-1.16-.61-2-.9v-3.36c3.16.19,6.1.79,8.73,1.79,2.84,1.07,5.52,2.67,7.96,4.74,6.47,5.49,9.75,13.24,9.75,23.04s-3.14,17.18-9.32,22.53c-4.6,3.99-10.35,6.31-17.13,6.89v-3.37ZM126.18,74.3c-6.74-.61-12.49-2.92-17.08-6.89-6.18-5.35-9.32-12.93-9.32-22.53,0-4.83.83-9.25,2.47-13.13,1.63-3.87,4.08-7.2,7.28-9.9,2.45-2.07,5.12-3.67,7.94-4.74,2.62-1,5.55-1.6,8.71-1.79v3.36c-1.54.54-2.68,1.27-3.38,2.17-.78,1-1.18,2.45-1.18,4.31v38.11c0,2.68.43,4.55,1.32,5.71.64.87,1.73,1.53,3.24,1.95v3.38Z"/>
        <path class="st2" d="M132.3,16.07c2.81.23,5.42.8,7.79,1.7,2.76,1.05,5.37,2.6,7.75,4.62,6.31,5.35,9.51,12.92,9.51,22.5s-3.05,16.79-9.08,22c-4.31,3.74-9.67,5.98-15.97,6.65v-2.07c.49-.15.92-.33,1.28-.54.64-.36,1.21-.88,1.72-1.54,1.08-1.43,1.61-3.44,1.61-6.13V25.15c0-1.78-.38-3.25-1.11-4.35-.5-.76-1.11-1.38-1.82-1.82-.45-.28-1-.55-1.68-.8v-2.11M125.48,16.07v2.11c-1.45.57-2.51,1.3-3.23,2.22-.88,1.13-1.33,2.72-1.33,4.74v38.11c0,2.84.48,4.85,1.45,6.11.66.91,1.71,1.61,3.11,2.07v2.09c-6.27-.69-11.62-2.93-15.92-6.64-6.02-5.21-9.08-12.61-9.08-22,0-4.73.81-9.06,2.42-12.86,1.59-3.77,3.97-7.01,7.09-9.64,2.38-2.02,4.99-3.57,7.73-4.62,2.35-.9,4.95-1.46,7.76-1.7M130.9,14.57v4.6c1.01.31,1.79.64,2.33.98.54.34,1.01.81,1.4,1.41.59.88.88,2.07.88,3.58v38.11c0,2.36-.44,4.12-1.32,5.29-.39.51-.83.9-1.3,1.17-.47.27-1.14.49-1.99.66v4.69c7.29-.48,13.39-2.86,18.29-7.12,6.37-5.51,9.56-13.2,9.56-23.06s-3.33-17.92-10-23.57c-2.52-2.13-5.24-3.75-8.16-4.86-2.93-1.11-6.15-1.73-9.69-1.88h0ZM126.88,14.57c-3.53.14-6.75.77-9.66,1.88-2.91,1.11-5.62,2.73-8.14,4.86-3.3,2.79-5.79,6.17-7.48,10.17-1.68,3.99-2.53,8.46-2.53,13.41,0,9.86,3.19,17.55,9.56,23.06,4.9,4.23,10.98,6.61,18.24,7.12v-4.69c-1.64-.37-2.76-.98-3.38-1.83-.78-1.02-1.18-2.78-1.18-5.29V25.15c0-1.71.34-3,1.03-3.88.69-.88,1.86-1.58,3.53-2.09v-4.6h0Z"/>
      </g>
      <g>
        <path class="st0" d="M231.83,73.21l-33.09-49.56c-.76-1.14-1.37-1.92-1.87-2.38-.54-.5-1.23-.87-2.06-1.1l-1.84-.59c-.37-.11-.64-.28-.84-.54-.19-.24-.29-.5-.29-.8,0-.34.1-.64.31-.94.21-.29.48-.5.84-.62.27-.1,1.19-.26,4.28-.26h21.1l25.76,38.9v17.89h-12.31ZM195.46,73.21c-2.5,0-3.76-.51-3.76-1.52,0-.42.14-.61.25-.71.14-.14.58-.47,1.86-1.09,3.38-1.62,5.1-4.6,5.1-8.86v-28.11l3.79,5.48v22.63c0,2.11.42,3.88,1.25,5.26.83,1.39,2.16,2.54,3.94,3.42l1.47.73c.61.31.88.7.88,1.29,0,.26-.07.65-.63,1.04-.23.16-.9.43-2.84.43h-11.33ZM240.35,40.45v-11.59c0-2.51-.44-4.48-1.31-5.85s-2.4-2.56-4.55-3.53c-.73-.3-1.03-.56-1.16-.72-.16-.2-.24-.47-.24-.82,0-.67.28-.94.53-1.09.31-.2.99-.43,2.4-.43h12.26c1.95,0,2.6.32,2.82.51.41.34.59.68.59,1.09s-.08.68-.25.84c-.11.11-.54.43-2.03,1.08-1.87.83-3.3,2.12-4.26,3.84-.68,1.27-1.02,2.97-1.02,5.07v17.16l-3.79-5.57Z"/>
        <path class="st2" d="M248.28,17.13c1.92,0,2.36.34,2.39.36.32.26.32.44.32.53,0,.22-.04.33-.03.33-.03.03-.35.3-1.83.95-2.01.89-3.55,2.28-4.59,4.16-.74,1.38-1.1,3.15-1.1,5.39v14.89l-2.39-3.51v-11.38c0-2.68-.46-4.72-1.42-6.23-.95-1.49-2.58-2.77-4.89-3.81-.67-.28-.85-.48-.86-.5-.07-.09-.08-.26-.08-.38,0-.37.11-.44.2-.49.16-.1.66-.32,2.03-.32h12.26M218,17.13l25.44,38.41v16.97h-11.23l-32.88-49.25c-.79-1.18-1.43-2-1.98-2.51-.62-.57-1.4-1-2.32-1.25l-1.88-.6c-.21-.06-.36-.15-.47-.29-.1-.12-.14-.23-.14-.36,0-.19.06-.35.18-.53.13-.18.28-.29.51-.37.11-.04.8-.22,4.04-.22h20.73M199.61,35.18l2.39,3.45v22.41c0,2.24.46,4.13,1.35,5.62.9,1.51,2.33,2.75,4.24,3.69l1.46.72c.5.25.5.48.5.66,0,.1,0,.24-.34.47-.02.01-.47.3-2.43.3h-11.33c-1.83,0-3.06-.33-3.06-.81,0-.11.02-.19.04-.2.05-.05.37-.33,1.67-.96,3.65-1.75,5.5-4.95,5.5-9.49v-25.86M248.28,15.73h-12.26c-1.28,0-2.2.18-2.77.53-.57.36-.86.92-.86,1.68,0,.51.13.93.39,1.26.26.33.74.63,1.42.92,2.03.91,3.44,2,4.24,3.26.8,1.26,1.2,3.09,1.2,5.48v11.81l5.2,7.63v-19.44c0-1.99.31-3.57.93-4.73.88-1.59,2.19-2.77,3.92-3.54,1.18-.51,1.92-.92,2.23-1.21.31-.3.46-.75.46-1.34s-.28-1.17-.83-1.62c-.52-.45-1.62-.68-3.28-.68h0ZM218.75,15.73h-21.48c-2.45,0-3.96.1-4.51.3-.49.17-.88.46-1.18.87-.29.41-.44.86-.44,1.34,0,.46.15.87.44,1.24.29.37.69.63,1.18.77l1.86.6c.72.2,1.31.51,1.77.94.46.43,1.05,1.18,1.77,2.26l33.3,49.87h13.39v-18.8l-26.09-39.39h0ZM198.21,30.69v30.35c0,3.98-1.57,6.72-4.71,8.23-1.05.51-1.72.92-2.04,1.21-.31.3-.47.7-.47,1.21,0,1.48,1.49,2.22,4.46,2.22h11.33c1.63,0,2.71-.18,3.24-.55.62-.43.93-.97.93-1.62,0-.85-.43-1.49-1.28-1.92l-1.47-.72c-1.67-.82-2.89-1.88-3.65-3.15-.77-1.28-1.15-2.91-1.15-4.9v-22.85l-5.2-7.5h0Z"/>
      </g>
      <g>
        <path class="st0" d="M288.32,73.21c-1.04,0-1.84-.16-2.36-.48-.43-.26-.62-.58-.62-1.04,0-.57.17-1.26,1.45-1.63,1.47-.43,1.82-.54,1.96-.6.3-.12.59-.35.86-.72.48-.56.73-1.42.73-2.6V23.48c0-1.18-.25-2.04-.76-2.63-.25-.33-.53-.56-.84-.68-.14-.05-.49-.17-1.95-.6-1.29-.36-1.46-1.06-1.46-1.63,0-.46.19-.78.62-1.04.52-.32,1.32-.48,2.36-.48h24.42c1.04,0,1.84.16,2.36.48.43.26.62.58.62,1.04,0,.57-.17,1.26-1.45,1.63-1.47.43-1.82.54-1.96.6-.3.12-.58.35-.86.72-.49.56-.73,1.42-.73,2.6v42.67c0,1.18.25,2.04.76,2.63.25.33.54.57.84.69.13.05.48.17,1.95.6,1.29.36,1.46,1.06,1.46,1.63,0,.46-.19.78-.62,1.04-.52.32-1.32.48-2.36.48h-24.42Z"/>
        <path class="st2" d="M312.74,17.13c1.14,0,1.71.2,2,.37.26.16.28.27.28.44,0,.31,0,.69-.95.95-1.48.43-1.84.55-2.01.62-.42.16-.79.46-1.14.91-.61.72-.9,1.72-.9,3.06v42.67c0,1.34.3,2.34.9,3.06.35.45.73.75,1.13.91.17.07.53.19,2.03.62.94.27.94.65.94.95,0,.17-.02.28-.28.44-.28.17-.86.37-2,.37h-24.42c-1.14,0-1.71-.2-2-.38-.26-.15-.28-.27-.28-.44,0-.31,0-.69.95-.95,1.49-.43,1.85-.55,2.01-.62.42-.16.79-.46,1.14-.91.61-.72.9-1.72.9-3.06V23.48c0-1.33-.3-2.34-.9-3.06-.35-.45-.72-.75-1.14-.91-.17-.07-.53-.19-2.02-.62-.94-.26-.94-.65-.94-.95,0-.17.02-.28.28-.44.28-.17.86-.37,2-.37h24.42M312.74,15.73h-24.42c-1.18,0-2.08.19-2.72.58-.64.38-.96.93-.96,1.64,0,1.17.65,1.93,1.96,2.3,1.08.31,1.71.5,1.89.58.18.07.37.23.56.49.39.45.59,1.18.59,2.17v42.67c0,1-.2,1.72-.59,2.17-.2.26-.38.42-.56.49-.18.07-.81.26-1.89.58-1.31.37-1.96,1.14-1.96,2.3,0,.71.32,1.26.96,1.64.64.38,1.54.58,2.72.58h24.42c1.18,0,2.08-.19,2.72-.58.64-.38.96-.93.96-1.64,0-1.16-.65-1.93-1.96-2.3-1.08-.31-1.71-.5-1.89-.58-.18-.07-.37-.23-.56-.49-.39-.45-.59-1.18-.59-2.17V23.48c0-.99.2-1.72.59-2.17.2-.26.38-.42.56-.49.18-.07.81-.26,1.89-.58,1.31-.37,1.96-1.14,1.96-2.3,0-.71-.32-1.26-.96-1.64-.64-.38-1.55-.58-2.72-.58h0Z"/>
      </g>
      <g>
        <path class="st0" d="M376.94,74.35c-5.89-.1-11.09-1.51-15.46-4.2-3.99-2.45-7.03-5.79-9.05-9.92-2.04-4.16-3.07-9.17-3.07-14.89,0-4.19.67-8.15,1.99-11.76,1.32-3.6,3.25-6.77,5.76-9.41,2.54-2.68,5.62-4.86,9.17-6.5,3.54-1.63,6.98-2.45,10.23-2.45l.43.02v3.89c-1.81.35-3.21,1.15-4.17,2.38-1.04,1.34-1.57,3.25-1.57,5.67v37.04c0,.75.18,1.54.52,2.34.34.8.79,1.49,1.34,2.06.58.63,1.23,1.1,1.91,1.38.53.22,1.17.37,1.97.47v3.86ZM382.36,70.5c2.45-.27,5.02-1.12,7.67-2.54,1.58-.87,3-2.03,4.22-3.47,1.23-1.44,2.16-3.04,2.78-4.76.28-.78.61-1.35.95-1.65.31-.27.73-.4,1.28-.4.6,0,1.08.19,1.47.57.39.38.57.84.57,1.42,0,1.14-.53,2.58-1.59,4.28-1.08,1.75-2.5,3.39-4.2,4.87-2.09,1.82-4.26,3.18-6.45,4.06-1.99.8-4.25,1.28-6.71,1.45v-3.82ZM399.02,37.53c-.61,0-1.07-.15-1.41-.47-.38-.35-.7-.97-.96-1.84-.7-2.28-1.39-4.09-2.06-5.41-1.44-2.76-3.1-5.03-4.95-6.76-1.25-1.17-2.53-2.09-3.79-2.73-1.11-.56-2.33-.95-3.64-1.16v-3.73c1.21.19,2.23.39,3.02.59.97.25,2.79.79,5.38,1.61,2.34.72,3.14.8,3.55.8,1.18,0,2.12-.49,2.74-1.42l.65-1.04c.11-.19.4-.69,1.61-.69.69,0,1.21.16,1.55.49.33.32.5.81.5,1.5v17.73c0,.92-.22,1.57-.64,1.94-.46.4-.97.6-1.55.6Z"/>
        <path class="st2" d="M376.24,15.94v2.64c-1.71.43-3.06,1.28-4.02,2.51-1.14,1.47-1.72,3.52-1.72,6.1v37.04c0,.84.2,1.72.58,2.62.37.88.87,1.64,1.46,2.25.66.72,1.39,1.25,2.17,1.56.44.18.94.32,1.53.43v2.54c-5.47-.2-10.31-1.57-14.39-4.07-3.87-2.38-6.83-5.62-8.79-9.63-1.99-4.06-3-8.97-3-14.58,0-4.11.66-7.98,1.95-11.52,1.28-3.51,3.17-6.6,5.61-9.17,2.48-2.61,5.49-4.75,8.96-6.34,3.34-1.54,6.59-2.34,9.66-2.38M399.17,15.98c.5,0,.86.1,1.06.29.19.18.28.51.28.99v17.73c0,.49-.07,1.13-.4,1.41-.33.29-.68.42-1.09.42-.63,0-.86-.21-.93-.29-.16-.15-.47-.55-.77-1.54-.71-2.31-1.41-4.16-2.11-5.52-1.47-2.83-3.19-5.16-5.09-6.94-1.3-1.22-2.63-2.18-3.96-2.85-1-.51-2.09-.88-3.25-1.12v-2.32c.84.14,1.56.29,2.15.44.96.25,2.76.79,5.36,1.6,2.39.74,3.26.83,3.75.83,1.42,0,2.57-.6,3.35-1.77l.66-1.07c.12-.21.46-.32.99-.32M399.27,58.39c.42,0,.72.11.98.37.25.25.36.53.36.92,0,.99-.51,2.34-1.48,3.91-1.05,1.69-2.42,3.27-4.07,4.71-2.03,1.76-4.13,3.09-6.24,3.93-1.72.69-3.65,1.14-5.75,1.34v-2.44c2.35-.34,4.8-1.2,7.31-2.54,1.65-.9,3.13-2.12,4.41-3.62,1.28-1.5,2.26-3.18,2.9-4.98.32-.89.61-1.23.75-1.35.07-.06.27-.23.82-.23M376.51,14.53c-3.37,0-6.87.84-10.52,2.52-3.65,1.68-6.78,3.89-9.39,6.65-2.58,2.73-4.55,5.95-5.91,9.65s-2.03,7.71-2.03,12c0,5.85,1.05,10.92,3.14,15.2,2.09,4.28,5.2,7.68,9.32,10.21,4.67,2.87,10.18,4.31,16.53,4.31v-5.2c-1.01-.08-1.81-.25-2.4-.49-.59-.24-1.14-.65-1.67-1.22-.49-.51-.89-1.13-1.2-1.85-.31-.72-.47-1.41-.47-2.07V27.19c0-2.27.47-4.02,1.42-5.24.95-1.22,2.39-1.96,4.32-2.22v-5.16l-1.13-.04h0ZM399.17,14.57c-1.08,0-1.81.34-2.21,1.02l-.64,1.02c-.49.74-1.21,1.11-2.16,1.11-.56,0-1.67-.26-3.33-.77-2.62-.82-4.42-1.36-5.42-1.62-1-.26-2.3-.5-3.9-.72v5.16c1.47.17,2.81.56,4.02,1.17,1.21.61,2.42,1.49,3.63,2.62,1.8,1.68,3.4,3.86,4.81,6.56.65,1.28,1.32,3.04,2.01,5.29.29,1,.68,1.71,1.15,2.15.47.44,1.1.66,1.89.66s1.42-.26,2.01-.77c.59-.51.88-1.33.88-2.47v-17.73c0-.88-.24-1.55-.71-2-.47-.45-1.15-.68-2.03-.68h0ZM399.27,56.99c-.72,0-1.3.19-1.74.58-.44.38-.83,1.03-1.15,1.94-.59,1.65-1.47,3.16-2.65,4.54-1.18,1.38-2.52,2.48-4.02,3.3-2.81,1.51-5.49,2.34-8.04,2.51v5.2c2.84-.11,5.4-.63,7.67-1.53,2.27-.91,4.49-2.3,6.64-4.18,1.77-1.53,3.21-3.21,4.34-5.03,1.13-1.82,1.69-3.37,1.69-4.65,0-.77-.26-1.41-.78-1.92-.52-.51-1.18-.77-1.96-.77h0Z"/>
      </g>
    </g>
  </g>
  <g id="THRUST">
    <g>
      <g>
        <path class="st0" d="M33.57,144.73c-1.3,0-2.28-.17-2.91-.52-.51-.28-.74-.65-.74-1.21,0-.65.2-1.45,1.79-1.78,1.94-.46,2.23-.55,2.32-.58.37-.12.7-.38,1.02-.8.57-.59.88-1.57.88-2.94v-52.03h20.26v52.03c0,1.37.3,2.35.93,3,.32.38.67.63,1.02.74.16.05.57.17,2.3.58,1.6.34,1.8,1.13,1.8,1.79,0,.33-.09.81-.91,1.28-.36.21-1.12.45-2.78.45h-24.98ZM70.9,104.75c-.64,0-1.14-.18-1.55-.56-.43-.39-.7-.93-.83-1.66l-.49-2.73c-.5-2.87-1.49-5.39-2.94-7.5-.87-1.24-2.02-2.28-3.44-3.11v-4.32h11.43v17.66c0,.68-.2,1.21-.6,1.62-.4.41-.92.6-1.58.6ZM21.32,104.75c-.66,0-1.17-.2-1.58-.6-.4-.41-.6-.93-.6-1.62v-17.66h11.43v4.32c-1.45.83-2.61,1.88-3.44,3.12-1.45,2.1-2.44,4.63-2.94,7.5l-.49,2.74c-.13.72-.41,1.26-.83,1.65-.41.37-.91.56-1.55.56Z"/>
        <path class="st2" d="M72.38,85.58v16.96c0,.65-.23.95-.4,1.12-.18.18-.47.4-1.08.4s-.9-.21-1.08-.37c-.31-.29-.51-.7-.62-1.26l-.49-2.73c-.52-2.97-1.55-5.58-3.06-7.79-.85-1.22-1.96-2.26-3.31-3.1v-3.23h10.03M55.49,85.58v51.33c0,1.54.36,2.67,1.1,3.46.43.49.86.8,1.33.95.19.06.62.19,2.4.6,1.23.26,1.23.74,1.23,1.1,0,.11,0,.35-.57.67-.18.11-.78.35-2.42.35h-24.98c-1.48,0-2.21-.23-2.57-.43-.32-.18-.38-.33-.38-.59,0-.35,0-.84,1.26-1.11,1.73-.41,2.17-.53,2.36-.59.48-.16.92-.49,1.32-.98.72-.78,1.06-1.9,1.06-3.42v-51.33h18.86M29.88,85.58v3.22c-1.38.85-2.49,1.9-3.32,3.12-1.51,2.19-2.53,4.81-3.05,7.77l-.49,2.72c-.11.57-.31.98-.62,1.27-.17.16-.47.37-1.08.37s-.9-.21-1.08-.4c-.17-.17-.4-.47-.4-1.12v-16.96h10.03M73.78,84.18h-12.83v5.43c1.5.81,2.68,1.84,3.56,3.1,1.4,2.04,2.34,4.44,2.83,7.23l.49,2.74c.16.87.51,1.55,1.05,2.04.54.49,1.21.74,2.02.74s1.54-.27,2.07-.81c.54-.54.81-1.24.81-2.11v-18.36h0ZM56.89,84.18h-21.66v52.73c0,1.17-.24,2-.73,2.51-.23.3-.46.49-.68.56-.23.08-.98.26-2.24.56-1.56.33-2.34,1.15-2.34,2.47,0,.81.37,1.41,1.1,1.82.73.4,1.81.61,3.24.61h24.98c1.46,0,2.5-.18,3.12-.54.85-.48,1.27-1.11,1.27-1.89,0-1.32-.78-2.14-2.34-2.47-1.27-.3-2.02-.49-2.24-.56-.23-.07-.47-.26-.73-.56-.49-.51-.73-1.35-.73-2.51v-52.73h0ZM31.28,84.18h-12.83v18.36c0,.87.27,1.57.81,2.11.54.54,1.23.81,2.07.81s1.49-.25,2.02-.74c.54-.49.89-1.17,1.05-2.04l.49-2.74c.49-2.78,1.43-5.19,2.83-7.23.85-1.26,2.03-2.29,3.56-3.1v-5.43h0Z"/>
      </g>
      <g>
        <path class="st0" d="M118.13,144.73c-2.71,0-2.71-1.18-2.71-1.68,0-.95.42-1.5,1.36-1.8l1.56-.5c1.26-.36,1.9-1.59,1.9-3.67v-21.43h-7.95v-3.04h7.95v-20.27c0-2.01-.64-3.23-1.9-3.63l-1.58-.45c-.93-.27-1.35-.81-1.35-1.75,0-.49,0-1.63,2.81-1.63h24.3c2.96,0,2.96,1.19,2.96,1.63,0,.91-.45,1.45-1.45,1.75-1.48.45-1.82.58-1.95.63-.31.13-.59.37-.86.75-.48.58-.72,1.47-.72,2.7v44.74c0,1.96.65,3.2,1.92,3.66l1.59.5c1.02.3,1.46.86,1.46,1.8,0,.46,0,1.68-2.96,1.68h-24.4ZM84.46,144.73c-1.03,0-1.81-.17-2.33-.5-.43-.28-.63-.63-.63-1.14,0-.91.45-1.45,1.45-1.75,1.48-.45,1.82-.58,1.95-.63.3-.13.58-.37.86-.75.48-.58.72-1.48.72-2.7v-44.92c0-1.22-.24-2.12-.74-2.73-.25-.35-.53-.59-.83-.72-.14-.06-.48-.18-1.95-.63-1.01-.3-1.46-.84-1.46-1.75,0-.51.19-.86.63-1.14.52-.33,1.3-.5,2.33-.5h24.3c2.76,0,2.76,1.14,2.76,1.63,0,.94-.42,1.48-1.35,1.75l-1.52.45c-1.28.41-1.92,1.63-1.92,3.63v44.92c0,2.01.64,3.23,1.9,3.63l1.52.45c.94.27,1.35.81,1.35,1.75,0,.49,0,1.63-2.76,1.63h-24.3Z"/>
        <path class="st2" d="M142.53,85.58c2.26,0,2.26.68,2.26.93,0,.44-.07.82-.96,1.09-1.48.45-1.84.58-2.01.65-.42.17-.79.49-1.13.96-.59.74-.87,1.77-.87,3.14v44.74c0,2.85,1.29,3.92,2.38,4.32h.03s.03.02.03.02l1.58.5c.8.24.95.58.95,1.13,0,.29,0,.98-2.26.98h-24.4c-2.02,0-2.02-.61-2.02-.98,0-.56.14-.9.88-1.13l1.52-.48c1.11-.32,2.43-1.33,2.43-4.35v-22.13h-7.95v-1.64h7.95v-20.97c0-2.92-1.3-3.95-2.43-4.31l-1.56-.45c-.64-.19-.85-.45-.85-1.08,0-.3,0-.93,2.11-.93h24.3M108.76,85.58c2.06,0,2.06.63,2.06.93,0,.63-.21.89-.85,1.08l-1.54.46c-1.09.35-2.39,1.37-2.39,4.3v44.92c0,2.93,1.3,3.95,2.42,4.3l1.52.45c.64.19.84.45.84,1.08,0,.3,0,.93-2.06.93h-24.3c-1.11,0-1.68-.21-1.96-.39-.23-.15-.3-.28-.3-.55,0-.44.07-.82.96-1.08,1.48-.45,1.84-.58,2.01-.65.42-.17.79-.49,1.13-.96.59-.74.87-1.77.87-3.14v-44.92c0-1.37-.29-2.4-.87-3.14-.34-.47-.71-.78-1.14-.96-.17-.07-.53-.2-2.01-.65-.88-.26-.95-.65-.95-1.08,0-.27.07-.4.3-.55.28-.18.84-.39,1.96-.39h24.3M142.53,84.18h-24.3c-2.34,0-3.51.78-3.51,2.33,0,1.26.62,2.06,1.85,2.42l1.56.45c.94.3,1.42,1.29,1.42,2.96v19.57h-7.95v4.44h7.95v20.73c0,1.74-.47,2.74-1.42,3.01l-1.56.49c-1.24.39-1.85,1.21-1.85,2.47,0,1.59,1.14,2.38,3.42,2.38h24.4c2.44,0,3.66-.79,3.66-2.38,0-1.26-.65-2.08-1.95-2.47l-1.56-.49c-.98-.36-1.46-1.36-1.46-3.01v-44.74c0-1.05.19-1.81.59-2.29.19-.27.38-.44.56-.52.18-.07.81-.28,1.88-.61,1.3-.39,1.95-1.2,1.95-2.42,0-1.56-1.22-2.33-3.66-2.33h0ZM108.76,84.18h-24.3c-1.17,0-2.07.2-2.71.61-.63.4-.95.98-.95,1.73,0,1.23.65,2.04,1.95,2.42,1.07.33,1.7.53,1.88.61.18.08.37.25.56.52.39.48.59,1.24.59,2.29v44.92c0,1.05-.2,1.81-.59,2.29-.2.27-.38.44-.56.52-.18.08-.81.28-1.88.61-1.3.39-1.95,1.2-1.95,2.42,0,.75.32,1.32.95,1.73.63.4,1.54.61,2.71.61h24.3c2.31,0,3.46-.78,3.46-2.33,0-1.26-.62-2.06-1.85-2.42l-1.51-.45c-.94-.3-1.42-1.29-1.42-2.96v-44.92c0-1.67.47-2.66,1.42-2.96l1.51-.45c1.24-.36,1.85-1.17,1.85-2.42,0-1.56-1.16-2.33-3.46-2.33h0Z"/>
      </g>
      <g>
        <path class="st0" d="M204.89,145.95c-4.09,0-7.31-1.08-9.57-3.2-2.25-2.11-3.39-5.12-3.39-8.94v-7.54c0-2.28-.03-2.8-.05-3-.18-1.34-.7-2.5-1.53-3.47-.95-1.05-2.25-1.72-3.88-2v-3.59c1.58-.27,2.73-.7,3.49-1.31.76-.63,1.28-1.35,1.56-2.15.27-.77.41-1.84.41-3.29v-11.89c0-2.05-.46-3.62-1.36-4.67-.83-.96-2.19-1.71-4.15-2.28v-3.75h.57c3.57,0,6.65.12,9.16.36,3.65.32,6.94,1.43,9.78,3.3,4.09,2.67,6.08,6.37,6.08,11.31,0,4-1.37,7.31-4.07,9.86-1.14,1.08-2.5,1.97-4.03,2.65-1.57.7-4.01,1.5-7.24,2.39l-3.28.9,3.37.47c2.94.41,5.22.87,6.79,1.37,1.54.49,2.95,1.15,4.19,1.98,1.27.86,2.25,1.9,2.93,3.08.67,1.17,1.01,2.43,1.01,3.74v9.29c0,1.98,1.32,2.14,1.73,2.14s.78-.12,1.08-.34c.23-.17.52-.47.87-.9.68-.85,1.33-1.27,1.95-1.27.36,0,.76.21,1.17.61.41.4.62.77.62,1.11,0,.77-.44,1.77-1.31,2.98-.91,1.27-2.07,2.42-3.43,3.41-1.26.93-2.65,1.61-4.12,2.02-1.5.42-3.29.63-5.33.63ZM158.87,144.73c-1.03,0-1.81-.17-2.33-.5-.43-.28-.63-.63-.63-1.14,0-.91.45-1.45,1.45-1.75,1.48-.45,1.82-.58,1.95-.63.3-.12.58-.37.86-.75.48-.58.72-1.47.72-2.7v-44.92c0-1.22-.24-2.12-.74-2.73-.25-.35-.53-.59-.83-.72-.14-.06-.48-.18-1.94-.63-1.01-.3-1.46-.84-1.46-1.75,0-.51.19-.86.63-1.14.52-.33,1.3-.5,2.33-.5h22.28v52.03c0,1.37.3,2.35.93,3,.32.38.67.63,1.02.74.16.05.57.17,2.3.58,1.6.34,1.8,1.13,1.8,1.79,0,.33-.09.81-.91,1.28-.36.21-1.11.45-2.73.45h-24.69Z"/>
        <path class="st2" d="M180.46,85.58v51.33c0,1.54.36,2.67,1.1,3.45.43.49.86.8,1.33.95.19.06.63.19,2.4.6,1.23.26,1.23.74,1.23,1.1,0,.11,0,.35-.57.67-.18.11-.77.35-2.37.35h-24.69c-1.11,0-1.68-.21-1.96-.39-.23-.15-.3-.28-.3-.55,0-.44.07-.82.96-1.08,1.48-.45,1.84-.58,2-.65.42-.17.79-.49,1.14-.96.59-.74.87-1.77.87-3.14v-44.92c0-1.37-.29-2.4-.87-3.14-.34-.47-.71-.78-1.14-.96-.17-.07-.53-.2-2.01-.65-.88-.26-.95-.65-.95-1.08,0-.27.07-.4.3-.55.28-.18.84-.39,1.96-.39h21.58M187.11,85.58c3.49,0,6.5.12,8.97.35,3.52.31,6.7,1.38,9.46,3.19,3.87,2.53,5.76,6.04,5.76,10.72,0,3.85-1.26,6.91-3.86,9.35-1.08,1.02-2.37,1.87-3.83,2.52-1.54.69-3.94,1.48-7.14,2.35l-6.56,1.79,6.74.94c2.9.41,5.15.86,6.68,1.34,1.48.47,2.83,1.1,4,1.89,1.18.8,2.1,1.76,2.72,2.85.62,1.08.91,2.19.91,3.39v9.29c0,2.09,1.31,2.84,2.43,2.84.56,0,1.08-.17,1.5-.49.28-.21.59-.53,1-1.03.52-.64,1.01-1,1.39-1,.17,0,.42.15.68.41.3.29.41.51.41.61,0,.35-.15,1.15-1.17,2.57-.87,1.21-1.97,2.3-3.29,3.26-1.19.88-2.5,1.52-3.88,1.91-1.44.4-3.16.6-5.14.6-3.91,0-6.97-1.01-9.09-3.01-2.13-2-3.17-4.76-3.17-8.43v-7.54c0-2.58-.04-2.93-.06-3.11-.2-1.46-.77-2.75-1.71-3.85-.93-1.04-2.17-1.73-3.69-2.09v-2.44c1.41-.3,2.48-.74,3.25-1.36.85-.7,1.44-1.52,1.77-2.45.3-.85.45-2,.45-3.52v-11.89c0-2.22-.52-3.95-1.53-5.13-.84-.98-2.15-1.75-3.98-2.34v-2.53M186.98,84.18h-1.27v4.98c2.08.54,3.52,1.27,4.32,2.2.8.93,1.2,2.33,1.2,4.22v11.89c0,1.35-.12,2.36-.37,3.05-.24.69-.69,1.3-1.34,1.84-.75.6-2,1.02-3.76,1.26v4.8c1.76.18,3.11.79,4.05,1.84.75.87,1.2,1.9,1.37,3.1.03.27.05,1.24.05,2.92v7.54c0,4.04,1.2,7.19,3.61,9.45,2.41,2.26,5.76,3.39,10.05,3.39,2.11,0,3.95-.22,5.51-.65,1.56-.43,3.01-1.14,4.34-2.13,1.43-1.05,2.63-2.24,3.59-3.57.96-1.33,1.44-2.46,1.44-3.39,0-.54-.28-1.08-.83-1.62-.55-.54-1.11-.81-1.66-.81-.85,0-1.68.51-2.49,1.53-.32.39-.58.65-.76.79-.18.13-.4.2-.66.2-.68,0-1.03-.48-1.03-1.44v-9.29c0-1.44-.37-2.8-1.1-4.08-.73-1.29-1.78-2.39-3.15-3.32-1.3-.87-2.76-1.56-4.37-2.06-1.61-.51-3.91-.97-6.9-1.39,3.28-.9,5.73-1.71,7.34-2.42,1.61-.72,3.02-1.65,4.22-2.78,2.86-2.69,4.29-6.15,4.29-10.37,0-5.15-2.13-9.11-6.39-11.89-2.96-1.95-6.33-3.08-10.1-3.41-2.54-.24-5.61-.36-9.22-.36h0ZM181.86,84.18h-22.98c-1.17,0-2.07.2-2.71.61-.63.4-.95.98-.95,1.73,0,1.23.65,2.04,1.95,2.42,1.07.33,1.7.53,1.88.61.18.08.37.25.56.52.39.48.59,1.24.59,2.29v44.92c0,1.05-.2,1.81-.59,2.29-.19.27-.38.44-.56.52-.18.08-.8.28-1.88.61-1.3.39-1.95,1.2-1.95,2.42,0,.75.32,1.32.95,1.73.63.4,1.54.61,2.71.61h24.69c1.43,0,2.46-.18,3.07-.54.85-.48,1.27-1.11,1.27-1.89,0-1.32-.78-2.14-2.34-2.47-1.27-.3-2.02-.49-2.24-.56-.23-.07-.47-.26-.73-.56-.49-.51-.73-1.35-.73-2.51v-52.73h0Z"/>
      </g>
      <g>
        <path class="st0" d="M255.34,145.95c-4.15,0-7.64-.34-10.37-1.01-3.2-.79-6.03-1.96-8.43-3.5-2.36-1.51-4.05-3.22-5.03-5.08-1.05-1.98-1.58-4.95-1.58-8.83v-35.18c0-1.23-.24-2.12-.74-2.73-.25-.35-.53-.59-.83-.72-.13-.06-.48-.18-1.95-.63-1.29-.39-1.46-1.12-1.46-1.71,0-.54.19-.91.63-1.18.52-.33,1.3-.5,2.33-.5h24.3l1.62.17c.4.12.72.31.98.59.24.26.35.55.35.92,0,.59-.17,1.32-1.45,1.71-1.46.45-1.81.57-1.95.63-.3.13-.58.37-.86.75-.48.58-.72,1.47-.72,2.7v37.65c0,2.6.07,4.37.23,5.42.16,1.08.49,2.08.99,2.96.48.85,1.03,1.47,1.65,1.86.51.33,1.38.67,2.65,1.05v4.65h-.37ZM261.6,141.38c3.12-.48,5.79-1.75,7.93-3.78,2.61-2.49,3.93-6.09,3.93-10.69v-29.26c0-4.37-1.86-7.47-5.52-9.2-1.2-.57-1.62-.92-1.75-1.07-.19-.21-.28-.56-.28-1.04,0-.66.3-.9.56-1.04.35-.19,1.11-.41,2.7-.41h11.95c1.21,0,1.72.03,1.93.06.26.03.5.12.75.25.82.43.91.91.91,1.23,0,.46-.17.81-.54,1.13-.07.06-.37.27-1.97,1.12-1.54.77-2.77,1.98-3.65,3.58-.87,1.58-1.31,3.39-1.31,5.39v29.31c0,4.85-1.17,8.87-3.47,11.97-1.68,2.29-4.13,4.14-7.28,5.52-1.37.6-3,1.07-4.88,1.39v-4.45Z"/>
        <path class="st2" d="M281.1,85.58c1.24,0,1.68.03,1.84.06.17.02.33.08.53.19.53.28.53.49.53.6,0,.2-.05.37-.29.6-.08.05-.43.29-1.82,1.02-1.68.85-3.02,2.15-3.97,3.88-.92,1.68-1.39,3.61-1.39,5.72v29.31c0,4.69-1.12,8.58-3.34,11.56-1.6,2.18-3.95,3.96-7,5.29-1.11.49-2.42.89-3.89,1.19v-3.02c3.01-.57,5.6-1.87,7.72-3.87,2.75-2.63,4.14-6.39,4.14-11.2v-29.26c0-4.67-1.99-7.98-5.92-9.84-1.22-.58-1.51-.87-1.54-.91,0,0-.1-.12-.1-.57,0-.33.08-.37.19-.42.19-.1.79-.33,2.37-.33h11.95M252.14,85.58l1.56.16c.25.08.45.21.61.37.12.13.17.26.17.45,0,.41-.07.77-.96,1.04-1.48.45-1.84.58-2.01.65-.42.17-.79.49-1.13.96-.59.74-.87,1.77-.87,3.14v37.65c0,2.64.08,4.44.23,5.52.17,1.17.53,2.25,1.07,3.2.53.95,1.17,1.66,1.89,2.11.5.32,1.25.63,2.33.98v3.44c-3.95-.02-7.27-.35-9.88-.99-3.12-.77-5.89-1.91-8.22-3.41-2.25-1.45-3.87-3.06-4.79-4.81-.99-1.88-1.5-4.74-1.5-8.5v-35.18c0-1.37-.29-2.4-.87-3.14-.34-.47-.71-.78-1.14-.96-.17-.07-.53-.2-2.02-.65-.88-.26-.95-.63-.95-1.04,0-.34.1-.46.3-.59.28-.18.84-.39,1.96-.39h24.23M281.1,84.18h-11.95c-1.4,0-2.41.17-3.03.49-.62.33-.93.88-.93,1.66,0,.66.15,1.16.46,1.5.31.34.97.76,1.98,1.23,3.42,1.62,5.12,4.47,5.12,8.57v29.26c0,4.43-1.24,7.82-3.71,10.19-2.18,2.06-4.9,3.29-8.15,3.68v5.88c2.28-.33,4.23-.85,5.86-1.57,3.29-1.44,5.81-3.35,7.56-5.74,2.41-3.23,3.61-7.36,3.61-12.39v-29.31c0-1.88.41-3.57,1.22-5.05.81-1.48,1.93-2.58,3.37-3.3,1.24-.66,1.93-1.06,2.1-1.21.52-.45.78-1,.78-1.66,0-.78-.42-1.39-1.27-1.84-.33-.18-.66-.29-1-.34s-1.02-.07-2.02-.07h0ZM252.22,84.18h-24.3c-1.17,0-2.07.2-2.71.61-.63.4-.95,1-.95,1.77,0,1.2.65,1.99,1.95,2.38,1.07.33,1.7.53,1.88.61.18.08.37.25.56.52.39.48.58,1.24.58,2.29v35.18c0,4.01.55,7.06,1.66,9.16,1.04,1.97,2.8,3.75,5.27,5.34,2.47,1.59,5.35,2.78,8.64,3.59,2.8.69,6.31,1.03,10.54,1.03h1.07v-5.88c-1.46-.42-2.46-.79-2.98-1.12-.52-.33-.99-.87-1.42-1.62-.46-.81-.76-1.71-.9-2.71-.15-1-.22-2.77-.22-5.32v-37.65c0-1.05.2-1.81.59-2.29.2-.27.38-.44.56-.52.18-.07.8-.28,1.88-.61,1.3-.39,1.95-1.18,1.95-2.38,0-.54-.18-1-.54-1.39-.36-.39-.81-.66-1.37-.81l-1.76-.18h0Z"/>
      </g>
      <g>
        <path class="st0" d="M317.08,142.09c2.69-.65,4.62-1.52,5.89-2.66,1.4-1.26,2.11-2.96,2.11-5.08,0-2.22-1.08-4.19-3.2-5.85-1.37-1.04-3.85-2.27-7.59-3.78-3.97-1.6-6.73-2.76-8.19-3.44-1.44-.67-2.84-1.47-4.17-2.37-5.89-3.86-8.87-9.05-8.87-15.44,0-3.28.74-6.35,2.21-9.12,1.46-2.77,3.53-5.03,6.15-6.72,3.52-2.27,7.91-3.59,13.07-3.93v3.88c-1.88.54-3.36,1.35-4.41,2.4-1.19,1.19-1.79,2.68-1.79,4.42,0,1.65.49,3.12,1.47,4.36.94,1.2,2.46,2.34,4.53,3.4,1.38.7,4.52,2.03,9.33,3.98,2.88,1.15,5.14,2.2,6.71,3.12,1.55.91,3.04,2.06,4.43,3.42,3.68,3.56,5.55,7.85,5.55,12.74,0,3.7-1.01,7.14-3.01,10.21-2,3.08-4.8,5.54-8.31,7.3-1.89.93-4,1.67-6.27,2.21-2,.47-3.89.74-5.65.8v-3.85ZM311.97,145.93c-2.38-.11-5.02-.8-7.85-2.03-1.21-.51-2.07-.85-2.55-1.01-.53-.17-1.04-.26-1.54-.26-.79,0-1.38.13-1.82.39-.39.23-.94.74-1.72,1.58-.46.52-.91.76-1.39.76-.61,0-2.03,0-2.03-3.16v-16.33c0-.67.2-1.21.6-1.67.39-.44.87-.66,1.46-.69h.12c.46,0,.8.12,1.05.36.22.22.55.71.87,1.83.76,2.63,1.88,5.12,3.33,7.41,1.45,2.3,3.16,4.27,5.1,5.87,1.85,1.56,4,2.61,6.38,3.13v3.83ZM335.85,104.12c-.51,0-.97-.15-1.4-.46-.18-.15-.36-.37-.49-.62-.1-.2-.26-.62-.45-1.54-.38-1.55-1.03-3.13-1.93-4.74-.9-1.6-1.97-3.05-3.18-4.31-2.31-2.39-5.21-4.03-8.64-4.88v-3.63c1.59.13,3.01.34,4.21.63,1.39.33,3.42,1.01,6.01,2.01.74.27,1.35.41,1.86.41,1.05,0,1.63-.47,1.92-.86l1.05-1.28c.4-.5.83-.73,1.36-.73.85,0,1.18.33,1.35.58.22.32.48.98.48,2.36v14.81c0,.69-.2,1.22-.61,1.64-.4.42-.92.62-1.57.62Z"/>
        <path class="st2" d="M313.81,84.46v2.61c-1.76.57-3.17,1.38-4.2,2.42-1.32,1.33-1.99,2.98-1.99,4.91,0,1.81.54,3.42,1.61,4.79,1.01,1.3,2.57,2.47,4.77,3.6,1.42.71,4.48,2.02,9.38,4,2.85,1.14,5.07,2.17,6.62,3.07,1.5.88,2.94,1.99,4.3,3.32,3.59,3.47,5.33,7.47,5.33,12.23,0,3.57-.97,6.87-2.9,9.83-1.93,2.98-4.64,5.35-8.03,7.05-1.85.91-3.91,1.63-6.12,2.16-1.68.4-3.28.65-4.79.75v-2.57c2.53-.66,4.39-1.55,5.66-2.68,1.56-1.39,2.34-3.28,2.34-5.6,0-2.45-1.17-4.6-3.48-6.41-1.41-1.07-3.94-2.33-7.74-3.86-3.96-1.6-6.71-2.75-8.15-3.43-1.41-.65-2.78-1.43-4.09-2.33-5.75-3.77-8.54-8.62-8.54-14.85,0-3.16.72-6.12,2.13-8.79,1.41-2.66,3.4-4.83,5.91-6.46,3.25-2.09,7.28-3.36,11.99-3.76M320.46,84.7c1.25.13,2.37.31,3.35.54,1.36.33,3.36,1,5.94,1.99.81.3,1.5.44,2.09.44,1.32,0,2.06-.6,2.46-1.11l1.07-1.3c.32-.4.59-.46.81-.46.59,0,.72.19.78.27.11.16.36.66.36,1.96v14.81c0,.66-.23.98-.41,1.16-.18.19-.47.4-1.07.4-.35,0-.65-.1-.96-.3-.13-.11-.23-.25-.32-.41-.04-.08-.19-.41-.38-1.36v-.03s-.01-.03-.01-.03c-.39-1.58-1.06-3.23-2-4.89-.93-1.65-2.04-3.15-3.29-4.46-2.28-2.36-5.11-4.01-8.44-4.93v-2.32M295.25,124.21c.39,0,.51.12.55.16.08.08.38.43.69,1.53.78,2.69,1.93,5.24,3.4,7.58,1.49,2.36,3.25,4.39,5.24,6.02,1.8,1.52,3.86,2.57,6.14,3.15v2.52c-2.1-.2-4.41-.85-6.89-1.93-1.22-.52-2.09-.86-2.6-1.03-.6-.2-1.19-.29-1.75-.29-.92,0-1.63.16-2.18.49-.31.18-.8.54-1.89,1.73-.46.52-.76.52-.86.52-.47,0-1.33,0-1.33-2.46v-16.33c0-.49.14-.87.43-1.2.26-.3.56-.44.96-.45h.09M315.21,82.96c-5.63.27-10.34,1.63-14.15,4.08-2.73,1.77-4.86,4.09-6.39,6.98-1.53,2.89-2.29,6.04-2.29,9.45,0,6.67,3.06,12.01,9.17,16.02,1.37.93,2.79,1.74,4.27,2.42s4.22,1.84,8.22,3.46c3.64,1.47,6.12,2.69,7.42,3.68,1.95,1.53,2.93,3.29,2.93,5.3s-.63,3.43-1.88,4.56c-1.25,1.12-3.29,2-6.12,2.62v5.12c2.02,0,4.19-.28,6.51-.83,2.33-.55,4.46-1.31,6.42-2.27,3.64-1.82,6.51-4.34,8.59-7.54,2.08-3.2,3.12-6.73,3.12-10.59,0-5.12-1.92-9.53-5.76-13.24-1.43-1.41-2.95-2.58-4.56-3.52s-3.88-2-6.81-3.16c-4.82-1.94-7.91-3.26-9.27-3.95-1.98-1.02-3.42-2.09-4.29-3.21s-1.32-2.43-1.32-3.93.53-2.86,1.59-3.93c1.06-1.06,2.59-1.85,4.61-2.36v-5.16h0ZM319.06,83.19v4.94c3.54.78,6.49,2.38,8.83,4.8,1.17,1.23,2.2,2.62,3.07,4.17.88,1.56,1.5,3.07,1.85,4.53.16.81.33,1.38.51,1.73.18.34.42.64.71.88.55.39,1.15.58,1.8.58.85,0,1.54-.28,2.07-.83s.8-1.26.8-2.13v-14.81c0-1.26-.2-2.18-.61-2.76-.41-.58-1.05-.88-1.93-.88-.75,0-1.38.33-1.9.99l-1.07,1.3c-.29.39-.75.58-1.37.58-.42,0-.96-.12-1.61-.36-2.63-1.02-4.67-1.7-6.1-2.04-1.43-.34-3.12-.58-5.08-.7h0ZM295.25,122.81s-.09,0-.14,0c-.78.03-1.43.34-1.95.92-.52.58-.78,1.29-.78,2.13v16.33c0,2.57.91,3.86,2.73,3.86.68,0,1.32-.33,1.9-.99.72-.78,1.24-1.26,1.56-1.46s.81-.29,1.46-.29c.42,0,.86.08,1.32.22.46.15,1.29.48,2.49.99,3.22,1.41,6.16,2.11,8.83,2.11v-5.12c-2.5-.45-4.72-1.48-6.64-3.1-1.89-1.56-3.54-3.46-4.95-5.7-1.42-2.24-2.5-4.65-3.24-7.23-.29-1.02-.64-1.73-1.05-2.13-.38-.38-.89-.56-1.54-.56h0Z"/>
      </g>
      <g>
        <path class="st0" d="M361.81,144.73c-1.3,0-2.28-.17-2.91-.52-.51-.28-.74-.65-.74-1.21,0-.65.2-1.45,1.79-1.78,1.94-.46,2.23-.55,2.32-.58.37-.12.7-.38,1.02-.8.57-.59.88-1.57.88-2.94v-52.03h20.26v52.03c0,1.37.3,2.35.93,3,.32.38.66.63,1.02.74.09.03.37.12,2.3.58,1.6.34,1.8,1.13,1.8,1.79,0,.33-.09.81-.91,1.28-.36.21-1.12.45-2.78.45h-24.98ZM399.13,104.75c-.64,0-1.14-.18-1.55-.56-.43-.39-.7-.93-.84-1.66l-.49-2.73c-.5-2.87-1.49-5.39-2.94-7.5-.87-1.24-2.02-2.28-3.44-3.11v-4.32h11.43v17.66c0,.68-.2,1.21-.6,1.62-.4.41-.92.6-1.58.6ZM349.56,104.75c-.66,0-1.17-.2-1.58-.6-.4-.41-.6-.93-.6-1.62v-17.66h11.43v4.32c-1.45.83-2.61,1.88-3.44,3.12-1.44,2.1-2.43,4.63-2.94,7.5l-.49,2.74c-.13.72-.41,1.26-.83,1.65-.41.37-.91.56-1.55.56Z"/>
        <path class="st2" d="M400.61,85.58v16.96c0,.65-.23.95-.4,1.12-.18.18-.47.4-1.08.4s-.9-.21-1.08-.37c-.31-.29-.52-.7-.62-1.26l-.49-2.73c-.52-2.97-1.55-5.58-3.06-7.79-.85-1.22-1.96-2.26-3.31-3.1v-3.23h10.03M383.73,85.58v51.33c0,1.54.36,2.67,1.1,3.45.43.49.86.8,1.33.95.19.06.63.19,2.39.6,1.23.26,1.23.74,1.23,1.1,0,.11,0,.35-.57.67-.18.11-.78.35-2.42.35h-24.98c-1.48,0-2.21-.23-2.57-.43-.32-.18-.37-.33-.37-.59,0-.35,0-.84,1.26-1.11,1.74-.41,2.17-.53,2.36-.59.48-.16.92-.49,1.32-.98.72-.78,1.06-1.91,1.06-3.42v-51.33h18.87M358.11,85.58v3.22c-1.38.85-2.5,1.9-3.32,3.12-1.51,2.19-2.53,4.81-3.05,7.77l-.48,2.72c-.11.57-.31.99-.62,1.27-.17.16-.47.37-1.08.37s-.9-.21-1.08-.4c-.17-.17-.4-.47-.4-1.12v-16.96h10.03M402.01,84.18h-12.83v5.43c1.5.81,2.68,1.84,3.56,3.1,1.4,2.04,2.34,4.44,2.83,7.23l.49,2.74c.16.87.51,1.55,1.05,2.04.54.49,1.21.74,2.02.74s1.54-.27,2.07-.81c.54-.54.8-1.24.8-2.11v-18.36h0ZM385.13,84.18h-21.67v52.73c0,1.17-.24,2-.73,2.51-.23.3-.46.49-.68.56-.23.08-.98.26-2.24.56-1.56.33-2.34,1.15-2.34,2.47,0,.81.37,1.41,1.1,1.82.73.4,1.81.61,3.25.61h24.98c1.46,0,2.5-.18,3.12-.54.85-.48,1.27-1.11,1.27-1.89,0-1.32-.78-2.14-2.34-2.47-1.27-.3-2.02-.49-2.24-.56-.23-.07-.47-.26-.73-.56-.49-.51-.73-1.35-.73-2.51v-52.73h0ZM359.51,84.18h-12.83v18.36c0,.87.27,1.57.8,2.11.54.54,1.23.81,2.07.81s1.49-.25,2.02-.74c.54-.49.89-1.17,1.05-2.04l.49-2.74c.49-2.78,1.43-5.19,2.83-7.23.85-1.26,2.03-2.29,3.56-3.1v-5.43h0Z"/>
      </g>
    </g>
  </g>
</svg>